<mxfile host="Electron" agent="Mozilla/5.0 (X11; Linux x86_64) AppleWebKit/537.36 (KHTML, like Gecko) draw.io/28.1.2 Chrome/138.0.7204.243 Electron/37.4.0 Safari/537.36" version="28.1.2">
  <diagram name="Page-1" id="L2oHu05GdPVcePG6kU_H">
    <mxGraphModel dx="911" dy="931" grid="1" gridSize="10" guides="1" tooltips="1" connect="1" arrows="1" fold="1" page="1" pageScale="1" pageWidth="850" pageHeight="1100" math="0" shadow="0">
      <root>
        <mxCell id="0" />
        <mxCell id="1" parent="0" />
        <mxCell id="wBrpxWjTASPpHzOcjaPT-4" value="w0" style="ellipse;whiteSpace=wrap;html=1;fillColor=#dae8fc;strokeColor=#6c8ebf;" vertex="1" parent="1">
          <mxGeometry x="50" y="150" width="50" height="50" as="geometry" />
        </mxCell>
        <mxCell id="wBrpxWjTASPpHzOcjaPT-5" value="x" style="ellipse;whiteSpace=wrap;html=1;fillColor=#dae8fc;strokeColor=#6c8ebf;" vertex="1" parent="1">
          <mxGeometry x="110" y="230" width="50" height="50" as="geometry" />
        </mxCell>
        <mxCell id="wBrpxWjTASPpHzOcjaPT-6" value="w1" style="ellipse;whiteSpace=wrap;html=1;fillColor=#dae8fc;strokeColor=#6c8ebf;" vertex="1" parent="1">
          <mxGeometry x="210" y="230" width="50" height="50" as="geometry" />
        </mxCell>
        <mxCell id="wBrpxWjTASPpHzOcjaPT-7" value="*" style="ellipse;whiteSpace=wrap;html=1;fillColor=#dae8fc;strokeColor=#6c8ebf;" vertex="1" parent="1">
          <mxGeometry x="160" y="150" width="50" height="50" as="geometry" />
        </mxCell>
        <mxCell id="wBrpxWjTASPpHzOcjaPT-10" value="" style="endArrow=none;html=1;rounded=0;exitX=0;exitY=1;exitDx=0;exitDy=0;entryX=0.5;entryY=0;entryDx=0;entryDy=0;endFill=0;" edge="1" parent="1" source="wBrpxWjTASPpHzOcjaPT-7" target="wBrpxWjTASPpHzOcjaPT-5">
          <mxGeometry width="50" height="50" relative="1" as="geometry">
            <mxPoint x="120" y="250" as="sourcePoint" />
            <mxPoint x="120" y="210" as="targetPoint" />
          </mxGeometry>
        </mxCell>
        <mxCell id="wBrpxWjTASPpHzOcjaPT-11" value="" style="endArrow=none;html=1;rounded=0;entryX=1;entryY=1;entryDx=0;entryDy=0;exitX=0.5;exitY=0;exitDx=0;exitDy=0;" edge="1" parent="1" source="wBrpxWjTASPpHzOcjaPT-6" target="wBrpxWjTASPpHzOcjaPT-7">
          <mxGeometry width="50" height="50" relative="1" as="geometry">
            <mxPoint x="140" y="250" as="sourcePoint" />
            <mxPoint x="190" y="200" as="targetPoint" />
          </mxGeometry>
        </mxCell>
        <mxCell id="wBrpxWjTASPpHzOcjaPT-12" value="" style="endArrow=none;html=1;rounded=0;exitX=0;exitY=1;exitDx=0;exitDy=0;entryX=0.5;entryY=0;entryDx=0;entryDy=0;endFill=0;" edge="1" parent="1" source="wBrpxWjTASPpHzOcjaPT-13" target="wBrpxWjTASPpHzOcjaPT-4">
          <mxGeometry width="50" height="50" relative="1" as="geometry">
            <mxPoint x="91" y="100" as="sourcePoint" />
            <mxPoint x="59" y="137" as="targetPoint" />
          </mxGeometry>
        </mxCell>
        <mxCell id="wBrpxWjTASPpHzOcjaPT-13" value="+" style="ellipse;whiteSpace=wrap;html=1;fillColor=#dae8fc;strokeColor=#6c8ebf;" vertex="1" parent="1">
          <mxGeometry x="110" y="70" width="50" height="50" as="geometry" />
        </mxCell>
        <mxCell id="wBrpxWjTASPpHzOcjaPT-14" style="rounded=0;orthogonalLoop=1;jettySize=auto;html=1;exitX=1;exitY=1;exitDx=0;exitDy=0;entryX=0.4;entryY=0;entryDx=0;entryDy=0;entryPerimeter=0;endArrow=none;endFill=0;" edge="1" parent="1" source="wBrpxWjTASPpHzOcjaPT-13" target="wBrpxWjTASPpHzOcjaPT-7">
          <mxGeometry relative="1" as="geometry" />
        </mxCell>
        <mxCell id="wBrpxWjTASPpHzOcjaPT-15" value="sin" style="ellipse;whiteSpace=wrap;html=1;fillColor=#d5e8d4;strokeColor=#82b366;" vertex="1" parent="1">
          <mxGeometry x="330" y="60" width="50" height="50" as="geometry" />
        </mxCell>
        <mxCell id="wBrpxWjTASPpHzOcjaPT-16" value="x" style="ellipse;whiteSpace=wrap;html=1;fillColor=#d5e8d4;strokeColor=#82b366;" vertex="1" parent="1">
          <mxGeometry x="330" y="150" width="50" height="50" as="geometry" />
        </mxCell>
        <mxCell id="wBrpxWjTASPpHzOcjaPT-17" value="" style="endArrow=none;html=1;rounded=0;entryX=0.5;entryY=1;entryDx=0;entryDy=0;exitX=0.5;exitY=0;exitDx=0;exitDy=0;" edge="1" parent="1" source="wBrpxWjTASPpHzOcjaPT-16" target="wBrpxWjTASPpHzOcjaPT-15">
          <mxGeometry width="50" height="50" relative="1" as="geometry">
            <mxPoint x="260" y="260" as="sourcePoint" />
            <mxPoint x="310" y="210" as="targetPoint" />
          </mxGeometry>
        </mxCell>
        <mxCell id="wBrpxWjTASPpHzOcjaPT-18" value="w1" style="ellipse;whiteSpace=wrap;html=1;fillColor=#ffe6cc;strokeColor=#d79b00;" vertex="1" parent="1">
          <mxGeometry x="500" y="60" width="50" height="50" as="geometry" />
        </mxCell>
        <mxCell id="wBrpxWjTASPpHzOcjaPT-19" value="sin" style="ellipse;whiteSpace=wrap;html=1;fillColor=#e1d5e7;strokeColor=#9673a6;" vertex="1" parent="1">
          <mxGeometry x="670" y="60" width="50" height="50" as="geometry" />
        </mxCell>
        <mxCell id="wBrpxWjTASPpHzOcjaPT-20" value="cos" style="ellipse;whiteSpace=wrap;html=1;fillColor=#e1d5e7;strokeColor=#9673a6;" vertex="1" parent="1">
          <mxGeometry x="670" y="150" width="50" height="50" as="geometry" />
        </mxCell>
        <mxCell id="wBrpxWjTASPpHzOcjaPT-21" value="" style="endArrow=none;html=1;rounded=0;entryX=0.5;entryY=1;entryDx=0;entryDy=0;exitX=0.5;exitY=0;exitDx=0;exitDy=0;fillColor=#e1d5e7;strokeColor=#9673a6;" edge="1" parent="1" source="wBrpxWjTASPpHzOcjaPT-20" target="wBrpxWjTASPpHzOcjaPT-19">
          <mxGeometry width="50" height="50" relative="1" as="geometry">
            <mxPoint x="600" y="260" as="sourcePoint" />
            <mxPoint x="650" y="210" as="targetPoint" />
          </mxGeometry>
        </mxCell>
        <mxCell id="wBrpxWjTASPpHzOcjaPT-25" value="exp" style="ellipse;whiteSpace=wrap;html=1;fillColor=#e1d5e7;strokeColor=#9673a6;" vertex="1" parent="1">
          <mxGeometry x="670" y="230" width="50" height="50" as="geometry" />
        </mxCell>
        <mxCell id="wBrpxWjTASPpHzOcjaPT-26" value="" style="endArrow=none;html=1;rounded=0;entryX=0.5;entryY=1;entryDx=0;entryDy=0;exitX=0.5;exitY=0;exitDx=0;exitDy=0;fillColor=#e1d5e7;strokeColor=#9673a6;" edge="1" parent="1" source="wBrpxWjTASPpHzOcjaPT-25" target="wBrpxWjTASPpHzOcjaPT-20">
          <mxGeometry width="50" height="50" relative="1" as="geometry">
            <mxPoint x="750" y="190" as="sourcePoint" />
            <mxPoint x="750" y="150" as="targetPoint" />
          </mxGeometry>
        </mxCell>
        <mxCell id="wBrpxWjTASPpHzOcjaPT-27" value="x" style="ellipse;whiteSpace=wrap;html=1;fillColor=#e1d5e7;strokeColor=#9673a6;" vertex="1" parent="1">
          <mxGeometry x="670" y="320" width="50" height="50" as="geometry" />
        </mxCell>
        <mxCell id="wBrpxWjTASPpHzOcjaPT-28" value="" style="endArrow=none;html=1;rounded=0;entryX=0.5;entryY=1;entryDx=0;entryDy=0;exitX=0.5;exitY=0;exitDx=0;exitDy=0;fillColor=#e1d5e7;strokeColor=#9673a6;" edge="1" parent="1" source="wBrpxWjTASPpHzOcjaPT-27" target="wBrpxWjTASPpHzOcjaPT-25">
          <mxGeometry width="50" height="50" relative="1" as="geometry">
            <mxPoint x="770" y="280" as="sourcePoint" />
            <mxPoint x="770" y="250" as="targetPoint" />
          </mxGeometry>
        </mxCell>
      </root>
    </mxGraphModel>
  </diagram>
</mxfile>
